/* XPM */
static char * i_blauw_xpm[] = {
"64 64 256 2",
"  	c None",
". 	c #040B78",
"+ 	c #8F876F",
"@ 	c #CEC677",
"# 	c #4D4B6A",
"$ 	c #ADA776",
"% 	c #292C6C",
"& 	c #D0E8B0",
"* 	c #726A64",
"= 	c #9D8851",
"- 	c #030BA8",
"; 	c #BAA96A",
"> 	c #DBCA85",
", 	c #644B29",
"' 	c #9AA2FC",
") 	c #A8985B",
"! 	c #262C9A",
"~ 	c #EDE897",
"{ 	c #596BFC",
"] 	c #101AAA",
"^ 	c #BABEB4",
"/ 	c #BDB786",
"( 	c #856C3E",
"_ 	c #DCD78B",
": 	c #B09968",
"< 	c #D1D79A",
"[ 	c #EFF6B6",
"} 	c #304AFC",
"| 	c #4E3620",
"1 	c #5C6098",
"2 	c #9DA6FC",
"3 	c #0210DD",
"4 	c #CBB97D",
"5 	c #3A40AC",
"6 	c #261E34",
"7 	c #5F5D6F",
"8 	c #DCE2C8",
"9 	c #E6EAD4",
"0 	c #827A64",
"a 	c #BEC6FC",
"b 	c #0C1CDC",
"c 	c #EADA8C",
"d 	c #AA9E70",
"e 	c #A18F57",
"f 	c #E1E9A8",
"g 	c #7987FC",
"h 	c #3A3B61",
"i 	c #B6B28C",
"j 	c #BDB06C",
"k 	c #0A14A3",
"l 	c #D6CE7C",
"m 	c #565674",
"n 	c #F0EF9A",
"o 	c #DCE094",
"p 	c #947C49",
"q 	c #A6A694",
"r 	c #755C34",
"s 	c #182AFC",
"t 	c #FEFEFC",
"u 	c #C5BE7C",
"v 	c #FBF99B",
"w 	c #9D9078",
"x 	c #A19879",
"y 	c #B0A06A",
"z 	c #1524D7",
"A 	c #E1F0B5",
"B 	c #7C7771",
"C 	c #6C7BFC",
"D 	c #485BFC",
"E 	c #4D4B7E",
"F 	c #1A1B79",
"G 	c #1A1654",
"H 	c #D6D7FC",
"I 	c #CCC07E",
"J 	c #8996FC",
"K 	c #BEB28C",
"L 	c #322A4C",
"M 	c #F9FAB7",
"N 	c #0D147F",
"O 	c #C7C797",
"P 	c #B0A281",
"Q 	c #252674",
"R 	c #DDCF88",
"S 	c #BEB8A4",
"T 	c #CCE0AC",
"U 	c #293BFC",
"V 	c #5A628C",
"W 	c #A8915D",
"X 	c #C6B27B",
"Y 	c #B6AE7C",
"Z 	c #0814C3",
"` 	c #B4A76D",
" .	c #5E4E5C",
"..	c #C4B772",
"+.	c #DADABC",
"@.	c #474565",
"#.	c #0616EB",
"$.	c #F7F19C",
"%.	c #3242FB",
"&.	c #D5C884",
"*.	c #696B84",
"=.	c #E4D88D",
"-.	c #AEB6FC",
";.	c #978255",
">.	c #B7A26E",
",.	c #1C25A6",
"'.	c #BFB079",
").	c #2334FC",
"!.	c #D3C183",
"~.	c #54526C",
"{.	c #2D327C",
"].	c #A0A28C",
"^.	c #A6997D",
"/.	c #1E2386",
"(.	c #E2D08A",
"_.	c #B4A97E",
":.	c #C4B77E",
"<.	c #020EC4",
"[.	c #6672FC",
"}.	c #404DFC",
"|.	c #9F906A",
"1.	c #42426C",
"2.	c #E0EEC6",
"3.	c #96917F",
"4.	c #F3E895",
"5.	c #897244",
"6.	c #837C78",
"7.	c #091BF5",
"8.	c #828FFC",
"9.	c #5B66FC",
"0.	c #50444A",
"a.	c #6D512C",
"b.	c #2C3494",
"c.	c #A5AEFC",
"d.	c #CBCFFC",
"e.	c #353673",
"f.	c #7D6438",
"g.	c #5464FC",
"h.	c #959FFC",
"i.	c #756D6F",
"j.	c #BBC0FC",
"k.	c #DDDDFC",
"l.	c #5C4C50",
"m.	c #4152FC",
"n.	c #6A656E",
"o.	c #5D4324",
"p.	c #EBE192",
"q.	c #727DFC",
"r.	c #CED0A0",
"s.	c #525691",
"t.	c #B3A998",
"u.	c #252664",
"v.	c #6A5E64",
"w.	c #7E7E7C",
"x.	c #60565C",
"y.	c #202ABA",
"z.	c #111DC7",
"A.	c #343A8C",
"B.	c #DADEAC",
"C.	c #E4EED4",
"D.	c #7E6A3C",
"E.	c #8E8264",
"F.	c #8E7548",
"G.	c #B6BAAC",
"H.	c #D5D9B9",
"I.	c #1723CC",
"J.	c #252A87",
"K.	c #D8E8C0",
"L.	c #1123FB",
"M.	c #181D8B",
"N.	c #6272FC",
"O.	c #B6BEFC",
"P.	c #FEFEA8",
"Q.	c #4E5288",
"R.	c #8A8274",
"S.	c #121684",
"T.	c #FCFEBB",
"U.	c #797272",
"V.	c #565E9C",
"W.	c #564C5C",
"X.	c #D5E0AC",
"Y.	c #030C8E",
"Z.	c #9A8A6A",
"`.	c #5E5C82",
" +	c #E0E9C2",
".+	c #EEF1AF",
"++	c #7C768C",
"@+	c #66523C",
"#+	c #B3AE97",
"$+	c #626694",
"%+	c #AEAE90",
"&+	c #715634",
"*+	c #6E82FC",
"=+	c #6A76FC",
"-+	c #E2E2FC",
";+	c #7682FC",
">+	c #0212FC",
",+	c #E4E7FC",
"'+	c #C4C194",
")+	c #47467C",
"!+	c #181EA0",
"~+	c #E5DF93",
"{+	c #1E2DF6",
"]+	c #A9A082",
"^+	c #5A567C",
"/+	c #5A5254",
"(+	c #92897F",
"_+	c #222589",
":+	c #8E9298",
"<+	c #827664",
"[+	c #6A6680",
"}+	c #D8E8AC",
"|+	c #0E1EF4",
"1+	c #2B2E7E",
"2+	c #1626F8",
"3+	c #8E7A4C",
"4+	c #0B1392",
"5+	c #CEE2C0",
"6+	c #414589",
"7+	c #524E70",
"8+	c #D5E1BF",
"9+	c #2E3DFB",
"0+	c #3746FB",
"a+	c #5F6CFC",
"b+	c #384AFC",
"c+	c #A2A9FC",
"d+	c #C3C8FC",
"e+	c #7F89FC",
"f+	c #505DFC",
"g+	c #9099FC",
"h+	c #B3B9FC",
"i+	c #8791FC",
"j+	c #ABB2FC",
"k+	c #4755FC",
"l+	c #CBC98C",
"m+	c #BCA975",
"n+	c #A7986A",
"o+	c #2A2EAC",
"p+	c #3D3B6D",
"q+	c #B4B49E",
"r+	c #0B15B0",
"s+	c #D1CF90",
"t+	c #967D56",
"u+	c #FAF9A8",
"v+	c #A09886",
"w+	c #CCCAAC",
"x+	c #7F6647",
"y+	c #CED1B1",
"z+	c #0516F5",
"A+	c #322E6C",
"B+	c #3E3A7C",
"C+	c #0A0E70",
"D+	c #968767",
"E+	c #A28A56",
"F+	c #8A6E44",
"G+	c #D2BA84",
"                                                                                                                                ",
"                                                f 2.2.2.2.A A A 2.2.T 5+< }+X.X.                                                ",
"                                          X.f [ A [ .+.+.+~ f ~ ~ u B *.*.].A .+A T <                                           ",
"                                      f A M .+~ ~+=._ R > &.> I ]+m . Y.. {.+ _ ~ [ [ }+<                                       ",
"                                  f .+[ ~ ~+(.> !.!.!.G+4 4 4 x 7+4+3 3 3 Z {.+ l _ p.n .+}+8+                                  ",
"                               +.+.+~ c R &.!.I 4 X m+m+` : D+p+- 3 z+|+L.7.3 J.0 I s+R ~+~ .+o <                               ",
"                          9 K..+p.(.> !.G+4 X m+: W t+F.x+@+L - 3 z+{+9+%.9+{+b Q U.:.I &.R o n A T                             ",
"                        9 B.p.=.> &.G+G+'.>.W F.x+&+, o.| 6 . 3 >+2+} { { D }.U z./.i.X 4 @ &.R p.~ X.+.                        ",
"                      }+n ~+(.&.!.4 '.>.E+F+r , o.o.o.o.| G - 3 7.).{ i+J ;+[.f+%.I.F v.y 4 I &.s+=.f f 8+                      ",
"                     +~ =.> > G+X >.W F+&+, o., , &+f.F+f.Q - 3 7.9+N.h.c.' e+=+f+%.I.M. .W '.4 !.&._ p.f o                     ",
"                  f ~ =.R !.!.X >.t+x+a., , &+D.t+D+P Y '.E Y.3 7.).g.8.c.h+c+i+q.f+%.z.F 0.|.m+4 !.&.R ~+f 8+                  ",
"                 +~ =.(.!.G+X : F.r a.&+r 5.E+m+_.x.% e.`.q+V Z 3 L.0+9.i+-.j.j+g+q.a+b+I.F 0.D+>.X I &._ ~+f H.                ",
"               +f =.> !.G+X W F+f.&+r F.W X R ~+w.N Y.- Y.$+q+Q.Z z+).m.[.g+-.j.j+J q.g.0+I.S.0.t+>.:.G+&.R ~+o 8               ",
"              f =.R !.!.X : F.f.r ( ;.: &.~ [ %+J.- <.<.<.k V.^ Q.r+|+).m.q.g+-.j.j+i+q.9.%.z.F 0.t+m+4 !.&.R f B.              ",
"            B.~+(.!.G+X : F.x+( 5.Z.X R .+P..+*.k <.>+>+3 3 - V.t.1 r+7.).m.[.g+-.j.j+g+q.a+0+I.F 0.t+m+4 !.> _ ~+<             ",
"          8+~+(.&.!.G+>.t+F+F+3+W 4 p.u+P.T.w+b.<.3 z+7.7.z+3 - m ]+)+r+7.).k+[.g+-.h+j+g+q.g.b+I.F W.= '.I !.&._ o _           ",
"          _ =.> !.4 m+E+5.5.p ) ..p.P.P.T.T.].- 3 z+).} U s |+3 Y.7+P )+] |+).k+q.g+h+h+j+g+q.9.0+I.F l.W :.!.&.R _ H.          ",
"        B.B.> &.G+X : p F.3+e ..~+P.P.T.M n U.<.3 L.D *+{ b+).z+<.% X m+7+k 7.).m.=+g+h+j.j+g+q.9.0+I.M./+: 4 !.&.R _ _         ",
"      8 s+(.&.!.G+>.;.t+;.e j =.v P.M M 4.c `.<.z+U C h.h.N.b+L.3 /.:.> m+6+r+|+U k+=+g+h+h+j+g+q.9.b+I.F x.m+I &.&._ r.        ",
"      y+_ R &.!.X ) ;.;.e ` &.n v u+u+4.=.R ^+<.z+} 8.a h+J f+{+Z 7+'.G+!.: )+] |+9+k+q.g+h+j.j+J C 9.9+I./.n.X !.&.s+s+_       ",
"      s+s+> !.G+m+E+= = ) 4 c P.P.u+~ =.(.> ^+<.z+m.g+d+d.2 a+9+I.++R.7+7+n.w 7+r+L.U k+=+g+-.j.j+g+q.f+U z./.n.X !.> R O       ",
"    H.s+R !.!.X y e = ) j l $.P.u+4.(.(.> > `.<.>+} J a d.c+;+}.{+5 ! k - 4+7+w )+] |+U k+=+g+-.h+c+8.a+}.{+Z Q i.!.&.&.I H.    ",
"    s+R > !.!.'.) e e y u ~+v P.4.c (.> > &.^+<.3 U C c.d.j+8.9.0+{+|+|+z+3 - )+w 7+r+|+U k+[.J j+h+2 q.f+).>+<.F <+!.R &.w+    ",
"    w+&.> !.4 ; ) ) ) j > ~ v $.p.(.> > > > B - 3 L.g.h.a h+h.;+[.f+}.%.).|+#.<.Q.w 7+r+#.{+b+9.8.2 c+i+g.).z+<.Y.@.X &.&.u     ",
"  _ l+s+> !.4 ; ) ) y .._ n v 4.=.(.> > > > $ M.3 7.0+*+j+j.j+g+e+;+=+a+k+U L.3 - E v+)+r+#.s 9+f+;+J g D 2+3 3 Y.@...&.&.I     ",
"  y+s+&.&.!.X ` ) y ` u =.n $.c (.> > > > > X )+- >+s D J j+j.h+h+h+c.' 8.f+9+L.3 - )+y 7+] >+|+).} D b+s z+<.- . x.4 &.&.u s+  ",
"  w+&.&.> !.X ; y $ j I ~+4.p.(.(.> > > > > &.+ M.<.z+).a+g+h+d.H k.H d+h+e+k+).>+- /.P m+7+] 3 >+|+L.|+>+3 - - h m+!.&.!.I w+  ",
"  '+&.> &.!...; ` ` j @ =.~ c (.(.> > > > > > :.~.k 3 L.0+[.h.a H -+-+,+d.2 [.U 7.<.F ` > ; )+k <.3 3 3 <.<.Y.e.|.4 !.!.&.I '+  ",
"  4 &.&.> @ ..; ` j ..@ ~+p.=.(.> > > > > (.> > P 1.k 3 2+b+[.' j.H -+,+k.-.q.0+|+k 1.m+> > m+^+4+<.- - - - p+) j 4 &.!.!.!.'+  ",
"  '+&.> > &...j ` j ..@ _ =.(.(.> > > > > > > > (.d )+r+#.s }.q.' j.H ,+k.-.;+}.L.,.^.R > > R Y 7+N Y.Y.. h y j j I &.!.!.!.K   ",
"  :.&.&.> &.u ..` j ..@ R =.(.> > > > > R > > > > > d 1.Z #.{+D q.2 j.k.k.h+e+k+2+Z [+R R > > (.` # u.F @.d ..j ..I > &.!.I t.  ",
"  u &.> > &.I ..j j j I l (.(.(.> > > > &.&.&.> (.> > m+)+r+#.).k+=+2 h+d.h+i+g.U #.- v.G+> (.> > !...@ ......j ..I > &.!.I $   ",
"  / &.> > l I ..j j j I @ R (.&.G+^.Z.6.6.6.6.(+d I &.> y )+k 7.).m.q.g+h+h+g+[.0+L.3 4+v.!.R (.> R l &.I ......I !.> > !.4 $   ",
"  / &.> R R l @ ..j ..4 @ &.m+<+6+_+!+r+r+r+r+!+_+)+<+X &.d )+r+7.).f+C g+-.c+;+m.s 3 <.Y.n.> > > R &.I u j j X @ R > > !.I P   ",
"  K &.> > (.l l @ u u u j B 1+- <.3 >+3 z+z+#.>+3 <.- 1+R.!.m+E r+#.{+}.9.8.' g+g.).#.<.- C+<+(.> (.@ 4 ....j 4 @ R (.> !.4 _.  ",
"  _.!.> (.(._ _ @ I ..` /+F - 3 3 7.2+).9+9+).s |+z+3 <.Q U.!.d # r+7.{+0+g.C 8.{ ).>+<.Y.C+0 (.> > I ..j j ..@ l (.(.> &.:.t.  ",
"  $ l+> (._ =.~+l @ ..@.Y.<.3 7.{+b+g.C g e+C g.}.).L.z+<._+i.!.P # r+z+2+9+b+D } L.3 - - . * > > &...j j ..u l _ =.(.&.&.X #+  ",
"  ]+I &.(.(.p.~+_ u * 4+<.3 L.%.g.e+2 -.a a h+c+8.[.m.).L.3 M.U.I '.)+r+3 7.7.L.7.#.3 - . h X (.> !.j ; ; j I l ~+=.(.&.!.Y K   ",
"  t.4 s+(.=.~ ~ o ` {.<.3 L.b+C g+c.O.j.a a j.O.-.h.q.f+U 2+3 _+i.!.P # r+3 >+3 3 <.- - e.Y (.(.&.X ; ; ; ..@ =.p.c (.> !.`     ",
"  q+'.&.l R ~+n _ U.Y.3 7.9+C h.c.2 ' ' ' ' 2 c+j+-.2 ;+f+9+2+3 _+* !.P # k <.<.- - - e.; (.> > !.; y y j I l ~ ~ c > &.G+>.    ",
"    ` &.R (.p.n < ~.<.3 {+g.' c+g+e+q.=+=+=+q.g g+j+h+c.e+9.0+2+3 !+U.I _.# S.- - . p+X R (.R &.X y y >...&.=.n ~ =.> !.:.P     ",
"    ]+I > =.c n O 1+3 |+} g -.c.8.=+9.b+9+0+f+[.;+h.-.O.c.g 9.%.2+3 _+i.!.P @.u.u.1.m+R > (.&.4 >.) : ` u _ ~ n p.(.> !.'.`     ",
"    ]+:.&.R c ~ %+!+3 s g.h.O.2 g g.U y.5 y.2+}.a+g ' -.j.c.8.g.%.L.3 /.* &.X Y X u (.(.> > !.; W W y j > ~ n v p.(.> 4 d       ",
"    S $ I R =.p.q ] 3 ).=+-.d+c+;+}.y.++_.6.,.2+}.=+i+c+j.j.j+e+g.%.|+3 M.0 &.(.R (.(.(.> !.X W E+W >.4 ~+n P.4.c > !.K e       ",
"      |./ &.(.~+v+r+3 9+g j.d.2 ;+}.y.t.R X 6+Z ).a+e+' j+j.j.c.g f+{+z+<.e.P (.(.(.R > !.j W ;.= ) ..R n v P.p.c > !.>.K       ",
"      t.P I R =.:+r+>+U *+j.d+c.;+k+z.`.t.(+! z 2+}.q.J c+j+j.j.c+g m.s 3 k 7 !.(.R (.&.X W ;.p = ; @ ~ P.P.$.c (.!.X x         ",
"        x ..> =.]+] 3 U C -.d+j+e+a+%.z.o+y.|+%.m.}.a+e+h.c+j+j.O.c+[.9+z+<.1+` R &.!.j E+p p = y !.~ v P.v 4.(.> I P ^.        ",
"        q+d I R v+!+3 s g.h.d+j+i+q.9.}.U 9+}.f+9.a+9.[.e+g+' c.h+h+i+D 2+3 k + !...y p 5.p = y I ~ v P.P.$.c (.&.:.Z.          ",
"          x Y &.K A.3 2+m.e+h+O.c+i+e+q.[.[.a+=+q.q.[.g.9.q.e+h.c.j.c.=+).#.<.7 m+E+F.F+F.;.y 4 p.v P.P.v p.c > I n+v+          ",
"            |.:.u `.<.7.9+a+' h+h+c.c+' ' g+g+i+e+q.[.g.0+}.[.e+' j.j.i+b+#.<.p+( f.F+F.= >.@ 4.v P.P.u+4.=.R !.>.E.            ",
"            q n+:.R.M.>+s k+q.2 h+d+d+d+d+d+a -.' q.9.f+9+s k+;+' j.d+h.k+7.<.u.f.( p W 4 (.$.P.P.P.u+4.c (.!.Y D+              ",
"              x d _.p+<.b ).f+=+g+j+a d.H d.O.2 e+9.k+0+2+Z ).=+J j.d.c.g.|+3 L F+E+>.!.p.v P.P.T.M n p.(.!.:.|.                ",
"                |.` w /.<.|+).}.9.;+g+c.-.c+J C f+0+9+{+r+] s [.i+O.d.2 D |+3 B+; > p.$.v P.T.T.u+4.c (.&.X |.w                 ",
"                  Z.d i._+<.|+2+U b+f+a+=+N.D %.).{+|+<.] !+{+9.i+h+j.J k+7.<.Q.p.v u+P.T.T.T.u+n p.(.&.:.|.w                   ",
"                    Z.^.E.e.k 3 >+7.|+2+2+2+|+z+>+3 k 1+1 I.9+9.e+-.-.*+%.7.<.*.M T.T.T.T.T.u+4.c (.&.K n+w                     ",
"                      w x n+7+J.k <.3 3 3 3 3 <.- ! 6+1 y.#.U g.g c.h.a+U >+] :+T.T.T.T.M $.p.=.R !.m+Z.                        ",
"                        w |.^.x [+B+J.,.k ] ! A.$+:+J.M.3 z+).g.e+h.q.m.s 3 M.q+T.T.M $.4.c (.> I ` Z.t.                        ",
"                          t.D+P 4 &.I / u O ~ f M y+1+- 3 z+2+D *+*+D ).7.<.s. +M $.4.p.=.(.&.X ^.E.                            ",
"                              w w Y !.> =.c ~ 4.$.s+u.Y.- >+z+U D m.U L.3 ] 3.p.4.~+=.R !.:.d D+^.                              ",
"                                  ^.x _.u &.R =.~+(.B N - <.3 7.L.2+|+z+k ^+I c (.> !.X : Z.^.                                  ",
"                                      Z.|.$ :.!.s+R R 6.4+<.<.3 3 >+3 <.e._.!.&.I K d + ^.                                      ",
"                                          ]+w x n+$ '.X n.N - <.<.<.- % i.` P ^.W w t.                                          ",
"                                                  P v+w E.W.C+. - C+e.* Z.]+t.                                                  ",
"                                                            @.% Q h                                                             "};
