/* XPM */
static char * thinking2_xpm[] = {
"90 90 12 1",
" 	c None",
".	c #FFFFFF",
"+	c #E5E5E5",
"@	c #B2B2B2",
"#	c #CCCCCC",
"$	c #999999",
"%	c #4C4C4C",
"&	c #7F7F7F",
"*	c #333333",
"=	c #191919",
"-	c #666666",
";	c #000000",
"..........................................................................................",
".....................................................................+....................",
"..........................................................................................",
"........................+...+...+........................+...+............................",
".......................................+...+........+...........+.........................",
".................+@###.............+......................................................",
"................$%%@&@@........................+.......................+..................",
"...+..........+*=*%&++@@+.........................................+........+..............",
"..............-;;;;%...&-@+.............++++..............................................",
".............@;;;;;%@+++-&$$$+........+&*%--@.......+...+.................................",
".............%=$%%*=&&##$$&@@-%-&@&$&$%*=%-=%$.....................................+......",
"....+.......#=&#$==%&$-@%*-$+@@%%*=%--=&&&&-%%&+...........+..............................",
"............#-$@@@*&$%;%-*%%&+@;=&;&%%@+&--%;*;;@....................+........+...........",
"............#@&$+#&&%*=;--*=@@@;;%&--$#.@&-%%%*;=&............+...........................",
"............#@-*;*$@;**%=&*;-$+=;%%-%-..#&-%--%**%@+......................................",
".....+......#%;*%;=;;@%*;--;;%#-$%&;;=&&#$---&&&-%-&...................+..................",
"............$;*@-%===-@#*-%;;=@$*#%;;;--@$==$@$#$--;-#+..........+.................+......",
".............#-@$;;*;;;*$$*;;;;=-+=;===-$*;*=&###***==@......................+............",
"..............@-;;*-;;;;**;;;;;*&@;;-;=*;;==;;-++&%;;;;$..+...............................",
"................-=&=;;;;;;;;;;;=&@;-**==;;=;;;=*--$=;=;;@..............+..................",
"................@;=%=;;;;;;;=;;;-@;%*=;;;;;;;;;;;&.$-;=*=&....+...........................",
".................*=%-;;;;;%&--;;*$;;;;;;;;;;;;;;;*@.@%=-**$..................+....+.......",
".....+...........@&*==;;;*+..-;;*-;;;;;;;;;;;;;;;;=&.&=&*%=#......+.......................",
"...................%=%%%%%+.#=;;*-;;;;*;=;;;;;;;;;==&$&-%==-..............................",
"..................$;*#&@$%;-*;;;=$;;;;%=%;;;;;;;;;;;=&$#%;==+.............................",
".................#%-**=;;;;;;;;;=+;;==*=*;;;;;;;;;;;;;*@@=*%#.......+.............+.......",
".................&&%*;;;;;;**;;;;.*;*--*=;;;;;;;;;;;;;;;$-&%-+...........+................",
"................@--=;;;;;%=;;;;;=#-;=-%=*;;;;;;;;;;;;;;;;=&=*&............................",
".....+....+.....$&-$=;%@...*=;;;%#---===;;;;;;;;;;;;;;;;;;;;;%$...........................",
"...............@+-=#*&.....#*;;=$+&-=;;;;;;;;;;;;;;;;;;;;;;;;==+..................+.......",
"...............+%@;%@-......=;;%$.&=;;;;;;;;;;;;;;;;;;;;;=;;;;;%.....+.......+............",
"................$=;;@-&.....;;;%+.$**=;;;;;;;;;;;;;;;;;;;;=;=;==@.........................",
".................%;=%+--...+=;;$%+@%=*=;;;;;;;;;;;;;;;;;;;;;====&.......+.................",
"....+............+==-@+*-..#;;*$%.$-**;;;;;;;;;;;;;;;;;;;;;=*==;%+........................",
"..........+.......@*%&@@;@.#%;*@%.-$-*;;;;;;;;;;;;;;;;;;;;;%%=*;;@.................+......",
"...................-*&*@$;$$%;-@*+-$--#$=;;;;;;;;;;;;;;;;;=;=;;;;-........................",
"...................@;=%*#@=;;=@$-#-&$&..&;;;;;;;;;;;;;;;;;;;=;;=;-+...........+...........",
"....................%;*==&$==-@+&#&$-#...%;;;;;;;;;;;;;;;;;;;;;;;-#....+..................",
"....................#;;;;;*&&$&%-&&-%....+-;;;;;;;;;;;;;;;;;;=*;*&&.......................",
"...+......+..........$;;;=$+-;==*$$*&.....+&;;;;;;;;;;;;;;**=**=%-*.......................",
"......................-;;@.$=;=;=%&;#.......+*;;;;;;==;;;;=*-&-*-;;#......+...............",
".......................%%.$=;;;*%;%*+.........@=;;=;=;;;*-@++++-%;;&......................",
"......+...............$*#$-;;;;*;;%-+@@&###....+=;=;=;;=$....#@$=;;*...............+......",
"....................#&&.+%;;;;;;;;==;%%%--&&--%%*%*=;=%%...####&;;;;........+.............",
".............+....#@$#.+%;;;;;;;;;;==%&$@@@++@#&&&$--&&$#++$#@$==;;;+.+...................",
"................+-&$..@=;;;;;;;;*;;*&$+........#&@#.$-*%==;=;;=%*;;;+.....................",
"...............+$-@++@=;;;;;;;;;;;=$@$&%$&@@++@-*=*--=;;;;;;==-$&;;;......................",
"......+.......+*$$@--;;;;;;;;;;;;;==;;;=;===%&=;;;;;;;;;;;*&##.+-;;;+........+............",
"..............$*$-;=;;;;;;;;;;;;;;;=;;;;;;;;;;;;;;;;;;;;;%#...#*;;;;+..............+......",
"..............-%&;;;;=%*;;;;;;;;;;;;;;=;;;;;;;;;;;;;;;;;;-@@#@%;;;;%......................",
"..............&;;;;--@.*;;;;;;;;;;;;;;;;;;;;;;;;;;;;;;;;;;;=;;;;;;;%....+.................",
"..............-**;=@&&$=;;;;;;;;;;;;;;;;;;;;;;;;;;;;;;;;;;;;;;;;;;;*......................",
".......+......-*=;;%$*;;;;;;;;;;;;;;;;;;;;;;;;;;;;;;;;;;;;;;;;;;;;;-......................",
"..............$;;;&*==;;;;;-&%*=;;;;;;;;;;;;;;;;;;;;;;;;;;;;;;;;;;;%&&&&&$................",
"..............@;;;-&;%=;;=;=*#@&*;;;;;;;;;;;;;;;;;;;;;;;;;;;;;;;;;;=**;=--&......+........",
"...............*;;;*==;;;*;;;;&+@%=;;;;;;;;;;;;;;=*;;;;;;;;==;;;*=*==;;;=%-@..............",
"...+...........#;;;;;=;;;;;=;;;;%$$-;;;;;;;;;;;;;=====;;==*&&$&-*;;=;=;====*+.............",
"................&*=;;;*;;;==;;=;%=@@&%=;;;;;====&===;*;;===*;=-*;;=*=*;==%*=@.............",
"...................##@$*;%*=;;;-=;=+#-%@&-;**===;;*%%-%-$--%-%=%***%;**;-&%=$.............",
"........................%*-%==;%+*;%@$==@$;;;==**--&---=*%$@-&&&&&&&&$%&%-*=-.............",
"......+..................#*-;;%;*@==-&%=%$*;-&-%-&-&-*===-=%-%-&@&@%*&$@-%*&-.............",
"..........................#=*;;;;=-;%+-;%-&;%@$*=&$$=;;=%*;*$$$$$&@$$&#@#%-%-....+........",
"...........................@*;;;;;;%;-@%=;@;;;=;;;;;;===%-*--&--#-@@$%*&--$;%.............",
"............................$%=;;;;;;=*$=;-*;;;;;;==*====$%%--*=-@$%&$-%&&&=%.............",
".............................#-;;;;;;;;=-=;;;==;;;;;;=*=%%-*%%%%&&%&&-%%-&%;%.............",
"...............................@=-=;;;;;=-;;;;*=;;;%-=%%%=;*--%-*=$-$&*-**&=-.............",
"..+...+.........................#=*;;=&=;=%;;;;;;;;;;&-**=*;=%--=;--&&-=-*%=*.......+.....",
"..................+..............+-%;;=$%=;;;;;;;;;;;;*==*=*%==%*;=%==%*%-;;;.............",
"...................................#%;;;*&%=;;;;;;;;=;;;;;;;=*=;==*;==--;;;;=.............",
".....................................%;;;;=#-;;;;;=;;;=;***=;;;%;==;=%=%%;;;;.............",
".........+............+...............-;=;;=-;;;;=-=;=*;;;=*%=;;*==;=*;=**=;;.............",
".......................................%;;=;;=;;;;*&==%=;;;=;*%%=%***=$=-;;=*&............",
".............+...+......................%;;=;;=;;;;%%*%=;;;;;;;=*;*=*%**--;;==....+.......",
"...+...................+................#=;;;;-;;;;%**=*-=*;;;;;;=;*---%;=;;;;+...........",
"...........................+.............&;;;;*%;;;;*%;;*-%%=%*;;*%%&--*=;;==;$...........",
".........................................@;;;;;;;;;;*&&=;***-&%=%--@-%*=;;;*%;%...........",
".........................................@;=;;;;;;;;=--;;=*%%%%=;=*=%*%=;=*-$%;+..........",
".........................................#=%-;;;;;;;;*=;;=;==**-%*;;%%%%*=-%%&$-...+......",
"....+.............+...........+..........+*--;;;;;;;;;;;;$==*;--@-%***-$%-%%%--*#.........",
"............+.............................==;;;;;;;;;;*;*-=;=;*&--@----%=*;;-*--..........",
".....................+...+...............+;;;;;;;;;;;;;%--&-%%*-%%--&$%%*=-=*%%-..........",
"................................+........@=&-==;;;;;;;*--*=*%-&-&*==%-&+@&%**%-*#.........",
".........................................=&&=&;;;*;;=-;=&*;====-$$*===&-&$--&$=;&.........",
"....+........+.........................+%=$&%=;;;;;=--*&%@---*;**&%%---*%-&&&&%;&.........",
".......................................$-&&-%;;;-;;=$---&$&$-=*-&&%$$----@&-@-%%$.........",
".........................+......+.....@%=;;;;===;;=*&-&-*=-%&&&&@--@-&-$&&-&&&&*..........",
"...............+...+..................&=;;**%=*;;;*%$-@@---**&#$@$-$+$$@&-&&%%%;#.........",
".....+................................&;=*-**&*=*%;&-$&@&&;;%-@@@$-$&$&-%&*%--;==.........",
"............................+.........+;;***%&-%-%$&&--@-%%%%&&&-&&%*%+---%-&-;=;+........",
"......................................+=;*;%*&%**&$--@=-*=%$*%&**&&=*==-*-&*-%;==$........"};
